<svg width="89" height="89" viewBox="0 0 89 89" fill="none" xmlns="http://www.w3.org/2000/svg">
<path d="M50.5631 28.3838L66.9785 44.7996L67.332 45.1531L67.6856 44.7996L72.9299 39.5553L73.2834 39.2017L72.9299 38.8482L46.7083 12.6262L46.3547 12.2726L46.0012 12.6262L19.7792 38.8482L19.4256 39.2017L19.7792 39.5553L25.0235 44.7996L25.3771 45.1531L25.7306 44.7996L42.1464 28.3838L42.1468 61.1891L42.1468 61.6891L42.6468 61.6891L50.0634 61.689L50.5634 61.689L50.5634 61.189L50.5631 28.3838ZM72.3127 76.5221H72.8127V76.0221V68.6055V68.1055H72.3127H20.396H19.896V68.6055V76.0221V76.5221H20.396H72.3127Z" fill="#272A2A" stroke="#272A2A"/>
</svg>
