<svg width="120" height="120" viewBox="0 0 120 120" fill="none" xmlns="http://www.w3.org/2000/svg">
<path d="M35 9.5H34.5V10V19.5H19.967C16.9487 19.5 14.5 21.9476 14.5 24.967V105.033C14.5 108.052 16.9476 110.5 19.967 110.5H100.033C103.052 110.5 105.5 108.052 105.5 105.033V24.967C105.5 21.9487 103.052 19.5 100.033 19.5H85.5V10V9.5H85H35ZM85 40.5H85.5V40V30.5H94.5V99.5H25.5V30.5H34.5V40V40.5H35H85ZM74.5 29.5H45.5V20.5H74.5V29.5Z" fill="#272A2A" stroke="#282B2C"/>
<path d="M54 76.5858L40.7071 63.293L40 62.5859L39.2929 63.293L35.2929 67.293L34.5858 68.0001L35.2929 68.7072L53.2929 86.7071L54 87.4142L54.7071 86.7071L84.7071 56.7071L85.4142 56L84.7071 55.2929L80.7072 51.2929L80 50.5858L79.2929 51.2929L54 76.5858Z" fill="#282B2C" stroke="#282B2C" stroke-width="2"/>
</svg>
