<svg width="89" height="89" viewBox="0 0 89 89" fill="none" xmlns="http://www.w3.org/2000/svg">
<path d="M40.2924 43.9281L23.877 27.5128L23.5235 27.1592L23.1699 27.5128L17.9256 32.7571L17.572 33.1107L17.9256 33.4642L44.1472 59.6861L44.5008 60.0397L44.8543 59.6861L71.0763 33.4642L71.4298 33.1107L71.0763 32.7571L65.8319 27.5128L65.4784 27.1592L65.1248 27.5128L48.7091 43.9285L48.7087 11.1232L48.7087 10.6232L48.2087 10.6232L40.7921 10.6233L40.292 10.6233L40.2921 11.1233L40.2924 43.9281ZM18.5428 66.2485H18.0428V66.7485L18.0428 74.1652V74.6652H18.5428H70.4594H70.9594V74.1652V66.7485V66.2485H70.4594H18.5428Z" fill="#272A2A" stroke="#272A2A"/>
</svg>
